<?xml version="1.0" encoding="UTF-8" standalone="no"?>
<svg width="48px" height="48px" viewBox="0 0 48 48" version="1.1" xmlns="http://www.w3.org/2000/svg" xmlns:xlink="http://www.w3.org/1999/xlink">
    <!-- Generator: Sketch 3.8.3 (29802) - http://www.bohemiancoding.com/sketch -->
    <title>web_logo_48</title>
    <desc>Created with Sketch.</desc>
    <defs>
        <polygon id="path-1" points="6.18025751e-05 47.7948718 47.8747468 47.7948718 47.8747468 0.124717949 6.18025751e-05 0.124717949 6.18025751e-05 47.7948718"></polygon>
    </defs>
    <g id="Component" stroke="none" stroke-width="1" fill="none" fill-rule="evenodd">
        <g id="Color" transform="translate(-336.000000, -405.000000)">
            <g id="web_logo_48" transform="translate(336.000000, 405.000000)">
                <path d="M40.4554506,17.3346256 C40.2698369,16.9807795 39.8054936,16.3871385 38.7713305,16.3871385 L27.4686695,16.3871385 L25.7954678,18.9580103 L37.0451845,18.959241 L37.3651159,18.959241 L27.9223004,33.2611897 L31.0903004,33.2611897 C31.0903004,33.2611897 40.4006524,19.1614974 40.4255794,19.1256 C40.7469528,18.6691897 40.7597253,17.9165744 40.4554506,17.3346256" id="Fill-1" fill="#410095"></path>
                <path d="M24.3199725,23.3941128 L17.4722472,23.3941128 L15.8876292,25.7842667 L22.3109768,25.7842667 L19.2702901,30.4790359 L15.5812944,30.4790359 C15.4719039,30.4790359 15.3635433,30.4745231 15.2553888,30.4683692 L15.2553888,30.4790359 C12.0634918,30.4790359 9.47581803,27.9018051 9.47581803,24.7237538 C9.47581803,21.5454974 12.0634918,18.9680615 15.2553888,18.9680615 C15.3635433,18.9623179 15.4719039,18.9580103 15.5812944,18.9580103 L23.2147365,18.9580103 L24.8881442,16.3871385 L15.4525391,16.3871385 C15.3853803,16.3871385 15.3206936,16.3910359 15.2553888,16.3920615 L15.2553888,16.3871385 C10.6321442,16.3871385 6.88340601,20.1196513 6.88340601,24.7237538 C6.88340601,29.3274462 10.6321442,33.0601641 15.2553888,33.0601641 L15.2553888,33.0437538 C15.3206936,33.0462154 15.3853803,33.0494974 15.4525391,33.0494974 L19.9742215,33.0494974 C20.4142558,33.0494974 20.8207107,32.8310359 21.0592687,32.4605744 L25.4013116,25.3801641 C25.6608824,24.9816 25.6800412,24.4794462 25.4536378,24.0648821 C25.2264103,23.6523692 24.7919382,23.3941128 24.3199725,23.3941128" id="Fill-3" fill="#410095"></path>
                <g id="Group-7" transform="translate(0.000000, 0.080410)">
                    <mask id="mask-2" fill="white">
                        <use xlink:href="#path-1"></use>
                    </mask>
                    <g id="Clip-6"></g>
                    <path d="M23.9376412,45.7426051 C11.8756326,45.7426051 2.06138369,35.9711179 2.06138369,23.9598359 C2.06138369,11.9485538 11.8756326,2.17686154 23.9376412,2.17686154 C36.0006798,2.17686154 45.8136927,11.9485538 45.8136927,23.9598359 C45.8136927,35.9711179 36.0006798,45.7426051 23.9376412,45.7426051 M23.9376412,0.124553846 C10.7386712,0.124553846 6.18025751e-05,10.8174769 6.18025751e-05,23.9598359 C6.18025751e-05,37.1026051 10.7386712,47.7949128 23.9376412,47.7949128 C37.1366112,47.7949128 47.8748086,37.1026051 47.8748086,23.9598359 C47.8748086,10.8174769 37.1366112,0.124553846 23.9376412,0.124553846" id="Fill-5" fill="#410095" mask="url(#mask-2)"></path>
                </g>
            </g>
        </g>
    </g>
</svg>